<svg width="24" height="20" viewBox="0 0 24 20" fill="none" xmlns="http://www.w3.org/2000/svg">
<path d="M7.68135 9.06387C7.09024 8.89405 6.49913 8.80789 5.92413 8.80789C5.03621 8.80789 4.2953 9.01036 3.72081 9.25831C4.27466 7.23507 5.60516 3.74402 8.2556 3.35088C8.50106 3.31445 8.7022 3.13735 8.76917 2.89895L9.34845 0.831502C9.39729 0.65666 9.36834 0.46951 9.26839 0.317779C9.16845 0.166049 9.00783 0.0648119 8.82783 0.0401934C8.63222 0.0135652 8.43283 0 8.23521 0C5.05383 0 1.90317 3.31345 0.57367 8.05778C-0.206758 10.8412 -0.4356 15.0258 1.48677 17.6597C2.5625 19.1336 4.13192 19.9206 6.15146 19.9992C6.15977 19.9995 6.16783 19.9997 6.17614 19.9997C8.66797 19.9997 10.8776 18.3252 11.5498 15.9279C11.9513 14.4948 11.7698 12.9918 11.0382 11.6948C10.3144 10.4124 9.12238 9.47761 7.68135 9.06387Z" fill="#2D74FF"/>
<path d="M23.2796 11.695C22.5558 10.4124 21.3638 9.47761 19.9227 9.06387C19.3316 8.89405 18.7405 8.80789 18.1658 8.80789C17.2778 8.80789 16.5367 9.01036 15.9622 9.25831C16.516 7.23507 17.8465 3.74402 20.4972 3.35088C20.7427 3.31445 20.9436 3.13735 21.0108 2.89895L21.5901 0.831502C21.6389 0.65666 21.61 0.46951 21.51 0.317779C21.4103 0.166049 21.2497 0.0648119 21.0695 0.0401934C20.8741 0.0135652 20.6747 0 20.4768 0C17.2955 0 14.1448 3.31345 12.8151 8.05778C12.0349 10.8412 11.806 15.0258 13.7287 17.6602C14.8041 19.1338 16.3738 19.9211 18.3931 19.9995C18.4014 19.9998 18.4095 20 18.418 20C20.9096 20 23.1195 18.3254 23.7916 15.9282C24.1927 14.495 24.0109 12.9918 23.2796 11.695Z" fill="#2D74FF"/>
</svg>
