<svg width="184" height="75" viewBox="0 0 184 75" fill="none" xmlns="http://www.w3.org/2000/svg">
<path d="M64.3194 22.5932L45.2384 37.6155L29.6084 42.6336L9.59397 24.0647L64.3194 22.5932Z" fill="#73E6D3"/>
<path d="M24.2947 43.6985L26.0293 46.7029L13.9115 53.6991L12.1769 50.6947L24.2947 43.6985Z" fill="#F3F5F9"/>
<path d="M20.8255 37.6897L22.5601 40.6941L13.5469 45.8979L11.8123 42.8935L20.8255 37.6897Z" fill="#F3F5F9"/>
<path d="M27.7637 49.7078L29.4983 52.7122L20.4851 57.916L18.7505 54.9115L27.7637 49.7078Z" fill="#E1E6F0"/>
<path d="M64.3192 22.594L29.6082 42.6344L35.6822 69.2519L64.3192 22.594Z" fill="#51CCCC"/>
<path d="M25.1621 45.2L26.0294 46.7022L13.9116 53.6984L13.0443 52.1961L25.1621 45.2Z" fill="#E1E6F0"/>
<path d="M33.7857 54C33.6685 54 33.5709 53.9297 33.4927 53.7891C33.4224 53.6484 33.3873 53.5195 33.3873 53.4023C33.3873 53.2695 33.4146 53.168 33.4693 53.0977C33.5318 53.0195 33.6334 52.9766 33.774 52.9688C34.2427 52.9297 34.6412 52.8555 34.9693 52.7461C35.3052 52.6289 35.4732 52.4531 35.4732 52.2188L35.4849 39.5391C35.4849 39.2266 35.3951 38.9922 35.2154 38.8359C35.0357 38.6797 34.8326 38.5781 34.606 38.5312C34.3795 38.4844 34.0787 38.4414 33.7037 38.4023C33.5318 38.3867 33.4185 38.3555 33.3638 38.3086C33.3091 38.2539 33.2818 38.1406 33.2818 37.9688C33.2818 37.8516 33.317 37.7227 33.3873 37.582C33.4654 37.4414 33.563 37.3711 33.6802 37.3711H40.1021C40.2193 37.3711 40.313 37.4414 40.3834 37.582C40.4615 37.7227 40.5005 37.8516 40.5005 37.9688C40.5005 38.1016 40.4693 38.207 40.4068 38.2852C40.3521 38.3555 40.2545 38.3945 40.1138 38.4023C39.6373 38.4414 39.2349 38.5195 38.9068 38.6367C38.5787 38.7461 38.4146 38.918 38.4146 39.1523L38.4029 51.832C38.4029 52.1445 38.4927 52.3789 38.6724 52.5352C38.8521 52.6914 39.0552 52.793 39.2818 52.8398C39.5084 52.8867 39.8091 52.9297 40.1841 52.9688C40.356 52.9844 40.4693 53.0195 40.524 53.0742C40.5787 53.1211 40.606 53.2305 40.606 53.4023C40.606 53.5195 40.567 53.6484 40.4888 53.7891C40.4185 53.9297 40.3248 54 40.2076 54H33.7857ZM42.9146 54C42.7974 54 42.6998 53.9297 42.6216 53.7891C42.5513 53.6484 42.5162 53.5195 42.5162 53.4023C42.5162 53.2695 42.5435 53.168 42.5982 53.0977C42.6529 53.0273 42.7545 52.9844 42.9029 52.9688C44.192 52.8672 44.8365 52.5391 44.8365 51.9844V39.75C44.8365 39.3047 44.6334 38.9844 44.2271 38.7891C43.8209 38.5938 43.356 38.4648 42.8326 38.4023C42.6607 38.3867 42.5474 38.3555 42.4927 38.3086C42.438 38.2539 42.4107 38.1406 42.4107 37.9688C42.4107 37.8516 42.4459 37.7227 42.5162 37.582C42.5943 37.4414 42.692 37.3711 42.8091 37.3711H47.356L56.5904 49.7344H56.731V39.5391C56.731 39.2344 56.6138 39.0039 56.3795 38.8477C56.1529 38.6914 55.9263 38.5938 55.6998 38.5547C55.4732 38.5078 55.1099 38.457 54.6099 38.4023C54.438 38.3867 54.3248 38.3555 54.2701 38.3086C54.2154 38.2539 54.188 38.1406 54.188 37.9688C54.188 37.8516 54.2232 37.7227 54.2935 37.582C54.3716 37.4414 54.4693 37.3711 54.5865 37.3711H60.0005C60.1177 37.3711 60.2115 37.4414 60.2818 37.582C60.3599 37.7227 60.399 37.8516 60.399 37.9688C60.399 38.1016 60.3716 38.2031 60.317 38.2734C60.2623 38.3438 60.1607 38.3867 60.0123 38.4023C59.606 38.4492 59.274 38.5 59.0162 38.5547C58.7584 38.6094 58.5162 38.7148 58.2896 38.8711C58.0709 39.0195 57.9615 39.2344 57.9615 39.5156V52.6758C57.9615 52.8164 57.9732 52.9648 57.9966 53.1211L58.0318 53.5312C58.0552 53.8203 57.9693 54.0273 57.774 54.1523C57.5865 54.2852 57.3716 54.3516 57.1295 54.3516C57.0123 54.3516 56.8912 54.3242 56.7662 54.2695C56.649 54.2227 56.5591 54.1641 56.4966 54.0938L46.3013 40.7227H46.1021V51.832C46.1021 52.1367 46.2154 52.3672 46.442 52.5234C46.6763 52.6797 46.9068 52.7812 47.1334 52.8281C47.3599 52.8672 47.7232 52.9141 48.2232 52.9688C48.3951 52.9844 48.5084 53.0195 48.563 53.0742C48.6177 53.1211 48.6451 53.2305 48.6451 53.4023C48.6451 53.5195 48.606 53.6484 48.5279 53.7891C48.4576 53.9297 48.3638 54 48.2466 54H42.9146ZM61.899 54C61.7818 54 61.6841 53.9297 61.606 53.7891C61.5357 53.6484 61.5005 53.5195 61.5005 53.4023C61.5005 53.2695 61.5279 53.168 61.5826 53.0977C61.6373 53.0273 61.7388 52.9844 61.8873 52.9688C63.1763 52.8672 63.8209 52.5391 63.8209 51.9844V39.75C63.8209 39.3047 63.6177 38.9844 63.2115 38.7891C62.8052 38.5938 62.3404 38.4648 61.817 38.4023C61.6451 38.3867 61.5318 38.3555 61.4771 38.3086C61.4224 38.2539 61.3951 38.1406 61.3951 37.9688C61.3951 37.8516 61.4302 37.7227 61.5005 37.582C61.5787 37.4414 61.6763 37.3711 61.7935 37.3711H66.3404L75.5748 49.7344H75.7154V39.5391C75.7154 39.2344 75.5982 39.0039 75.3638 38.8477C75.1373 38.6914 74.9107 38.5938 74.6841 38.5547C74.4576 38.5078 74.0943 38.457 73.5943 38.4023C73.4224 38.3867 73.3091 38.3555 73.2545 38.3086C73.1998 38.2539 73.1724 38.1406 73.1724 37.9688C73.1724 37.8516 73.2076 37.7227 73.2779 37.582C73.356 37.4414 73.4537 37.3711 73.5709 37.3711H78.9849C79.1021 37.3711 79.1959 37.4414 79.2662 37.582C79.3443 37.7227 79.3834 37.8516 79.3834 37.9688C79.3834 38.1016 79.356 38.2031 79.3013 38.2734C79.2466 38.3438 79.1451 38.3867 78.9966 38.4023C78.5904 38.4492 78.2584 38.5 78.0005 38.5547C77.7427 38.6094 77.5005 38.7148 77.274 38.8711C77.0552 39.0195 76.9459 39.2344 76.9459 39.5156V52.6758C76.9459 52.8164 76.9576 52.9648 76.981 53.1211L77.0162 53.5312C77.0396 53.8203 76.9537 54.0273 76.7584 54.1523C76.5709 54.2852 76.356 54.3516 76.1138 54.3516C75.9966 54.3516 75.8755 54.3242 75.7505 54.2695C75.6334 54.2227 75.5435 54.1641 75.481 54.0938L65.2857 40.7227H65.0865V51.832C65.0865 52.1367 65.1998 52.3672 65.4263 52.5234C65.6607 52.6797 65.8912 52.7812 66.1177 52.8281C66.3443 52.8672 66.7076 52.9141 67.2076 52.9688C67.3795 52.9844 67.4927 53.0195 67.5474 53.0742C67.6021 53.1211 67.6295 53.2305 67.6295 53.4023C67.6295 53.5195 67.5904 53.6484 67.5123 53.7891C67.442 53.9297 67.3482 54 67.231 54H61.899ZM89.0162 54.3398C87.3677 54.3398 85.9302 53.9531 84.7037 53.1797C83.4771 52.4062 82.5357 51.3555 81.8795 50.0273C81.231 48.6992 80.9068 47.2266 80.9068 45.6094C80.9068 44 81.2349 42.543 81.8912 41.2383C82.5552 39.9336 83.5045 38.9062 84.7388 38.1562C85.981 37.3984 87.4302 37.0195 89.0865 37.0195C90.7427 37.0195 92.1802 37.3984 93.399 38.1562C94.6177 38.9062 95.5474 39.9336 96.188 41.2383C96.8365 42.5352 97.1607 43.9922 97.1607 45.6094C97.1607 47.2266 96.8326 48.6992 96.1763 50.0273C95.5201 51.3477 94.5748 52.3984 93.3404 53.1797C92.106 53.9531 90.6646 54.3398 89.0162 54.3398ZM89.063 53.2383C90.2193 53.2383 91.1373 52.9414 91.817 52.3477C92.5045 51.7461 92.9927 50.8906 93.2818 49.7812C93.5709 48.6641 93.7154 47.2812 93.7154 45.6328C93.7154 43.9922 93.563 42.6211 93.2584 41.5195C92.9615 40.418 92.4654 39.5742 91.7701 38.9883C91.0826 38.4023 90.1568 38.1094 88.9927 38.1094C87.8287 38.1094 86.9029 38.4023 86.2154 38.9883C85.5357 39.5742 85.0513 40.418 84.7623 41.5195C84.481 42.6133 84.3404 43.9844 84.3404 45.6328C84.3404 48.125 84.6998 50.0156 85.4185 51.3047C86.1373 52.5938 87.3521 53.2383 89.063 53.2383ZM100.114 39.3047C100.02 39.0391 99.8873 38.8438 99.7154 38.7188C99.5513 38.5938 99.3795 38.5156 99.1998 38.4844C99.0279 38.4453 98.8091 38.4219 98.5435 38.4141C98.3951 38.4141 98.2896 38.4102 98.2271 38.4023C98.0552 38.3867 97.942 38.3555 97.8873 38.3086C97.8326 38.2539 97.8052 38.1406 97.8052 37.9688C97.8052 37.8516 97.8443 37.7227 97.9224 37.582C97.9927 37.4414 98.0865 37.3711 98.2037 37.3711H104.872C104.989 37.3711 105.083 37.4414 105.153 37.582C105.231 37.7227 105.27 37.8516 105.27 37.9688C105.27 38.1016 105.243 38.2031 105.188 38.2734C105.133 38.3438 105.032 38.3867 104.883 38.4023L104.403 38.4258C103.989 38.4336 103.688 38.457 103.501 38.4961C103.321 38.5352 103.231 38.625 103.231 38.7656C103.231 38.8047 103.243 38.8555 103.266 38.918L107.696 50.8359L111.797 39.2695C111.813 39.207 111.821 39.1641 111.821 39.1406C111.821 38.9219 111.645 38.7539 111.294 38.6367C110.942 38.5117 110.493 38.4336 109.946 38.4023C109.797 38.3867 109.696 38.3438 109.641 38.2734C109.586 38.2031 109.559 38.1016 109.559 37.9688C109.559 37.8516 109.594 37.7227 109.665 37.582C109.743 37.4414 109.84 37.3711 109.958 37.3711H115.301C115.419 37.3711 115.512 37.4414 115.583 37.582C115.661 37.7227 115.7 37.8516 115.7 37.9688C115.7 38.1406 115.672 38.2539 115.618 38.3086C115.563 38.3555 115.45 38.3867 115.278 38.4023C115.2 38.4102 114.997 38.4258 114.669 38.4492C114.34 38.4648 114.071 38.543 113.86 38.6836C113.649 38.8242 113.489 39.0312 113.379 39.3047L107.696 54.2109H106.254L100.114 39.3047ZM131.754 52.9688C131.926 52.9844 132.04 53.0195 132.094 53.0742C132.149 53.1211 132.176 53.2305 132.176 53.4023C132.176 53.5195 132.137 53.6484 132.059 53.7891C131.989 53.9297 131.895 54 131.778 54H125.426C125.309 54 125.211 53.9297 125.133 53.7891C125.063 53.6484 125.028 53.5195 125.028 53.4023C125.028 53.2695 125.055 53.168 125.11 53.0977C125.165 53.0273 125.266 52.9844 125.415 52.9688L125.895 52.9453C126.294 52.9375 126.575 52.918 126.739 52.8867C126.903 52.8477 126.985 52.7617 126.985 52.6289C126.985 52.5664 126.973 52.5078 126.95 52.4531L125.52 48.2812L119.895 48.2695L118.454 52.4531C118.438 52.4922 118.43 52.5391 118.43 52.5938C118.43 52.7344 118.516 52.8242 118.688 52.8633C118.86 52.9023 119.153 52.9297 119.567 52.9453C119.684 52.9453 119.876 52.9531 120.141 52.9688C120.29 52.9844 120.391 53.0273 120.446 53.0977C120.501 53.168 120.528 53.2695 120.528 53.4023C120.528 53.5195 120.489 53.6484 120.411 53.7891C120.34 53.9297 120.247 54 120.129 54H115.172C115.047 54 114.95 53.9414 114.879 53.8242C114.809 53.707 114.774 53.5664 114.774 53.4023C114.774 53.2305 114.801 53.1211 114.856 53.0742C114.911 53.0195 115.024 52.9844 115.196 52.9688C115.258 52.9609 115.364 52.957 115.512 52.957C115.762 52.9492 115.965 52.9297 116.122 52.8984C116.286 52.8594 116.446 52.7773 116.602 52.6523C116.758 52.5273 116.887 52.332 116.989 52.0664L122.45 37.1133H124.606L129.938 52.0664C130.032 52.332 130.157 52.5312 130.313 52.6641C130.469 52.7891 130.629 52.8672 130.794 52.8984C130.965 52.9297 131.176 52.9492 131.426 52.957C131.575 52.957 131.684 52.9609 131.754 52.9688ZM122.872 40.0781L120.235 47.2734H125.18L122.872 40.0781ZM135.692 54C135.575 54 135.477 53.9297 135.399 53.7891C135.329 53.6484 135.294 53.5195 135.294 53.4023C135.294 53.2695 135.321 53.168 135.376 53.0977C135.43 53.0273 135.532 52.9844 135.68 52.9688C136.383 52.9297 136.958 52.8359 137.403 52.6875C137.856 52.5312 138.083 52.2578 138.083 51.8672L138.094 38.5312H135.129C134.723 38.5312 134.391 38.7695 134.133 39.2461C133.883 39.7148 133.7 40.2344 133.583 40.8047C133.465 41.375 133.391 41.8711 133.36 42.293C133.329 42.5508 133.161 42.6797 132.856 42.6797C132.739 42.6797 132.606 42.6445 132.458 42.5742C132.317 42.4961 132.251 42.3984 132.258 42.2812C132.305 41.0938 132.36 39.9805 132.422 38.9414C132.493 37.8945 132.567 37.3711 132.645 37.3711H146.403C146.481 37.3711 146.555 37.9297 146.626 39.0469C146.704 40.1562 146.758 41.2344 146.79 42.2812C146.79 42.3984 146.719 42.4961 146.579 42.5742C146.438 42.6445 146.309 42.6797 146.192 42.6797C145.879 42.6797 145.708 42.5508 145.676 42.293C145.614 41.4961 145.45 40.6719 145.184 39.8203C144.919 38.9609 144.497 38.5312 143.919 38.5312H141.024L141.012 51.832C141.012 52.1445 141.133 52.3789 141.376 52.5352C141.618 52.6914 141.895 52.7969 142.208 52.8516C142.52 52.8984 142.911 52.9375 143.379 52.9688C143.551 52.9844 143.665 53.0195 143.719 53.0742C143.774 53.1211 143.801 53.2305 143.801 53.4023C143.801 53.5195 143.762 53.6484 143.684 53.7891C143.614 53.9297 143.52 54 143.403 54H135.692ZM148.465 53.4023C148.465 53.2695 148.493 53.168 148.547 53.0977C148.602 53.0273 148.704 52.9844 148.852 52.9688C149.321 52.9297 149.723 52.8555 150.059 52.7461C150.395 52.6289 150.563 52.4531 150.563 52.2188V39.5391C150.563 39.2344 150.473 39.0039 150.294 38.8477C150.114 38.6914 149.915 38.5898 149.696 38.543C149.485 38.4961 149.18 38.4492 148.782 38.4023C148.61 38.3867 148.497 38.3555 148.442 38.3086C148.387 38.2539 148.36 38.1406 148.36 37.9688C148.36 37.8516 148.395 37.7227 148.465 37.582C148.544 37.4414 148.641 37.3711 148.758 37.3711L160.934 37.3594L161.344 41.168C161.352 41.293 161.301 41.3906 161.192 41.4609C161.09 41.5312 160.985 41.5664 160.876 41.5664C160.711 41.5664 160.563 41.543 160.43 41.4961C160.297 41.4414 160.188 41.3359 160.102 41.1797L159.657 40.3242C159.422 39.8398 159.231 39.4844 159.083 39.2578C158.934 39.0234 158.754 38.8438 158.544 38.7188C158.333 38.5859 158.059 38.5195 157.723 38.5195L153.54 38.5312V44.8828L156.411 44.8711C156.598 44.8477 156.778 44.7109 156.95 44.4609C157.122 44.2109 157.266 43.9297 157.383 43.6172C157.501 43.2969 157.571 43.0469 157.594 42.8672C157.626 42.6172 157.805 42.4922 158.133 42.4922C158.243 42.4922 158.356 42.5312 158.473 42.6094C158.598 42.6797 158.661 42.7734 158.661 42.8906V48.082C158.661 48.1992 158.598 48.2969 158.473 48.375C158.356 48.4453 158.243 48.4805 158.133 48.4805C157.985 48.4805 157.856 48.4531 157.747 48.3984C157.637 48.3359 157.575 48.2344 157.559 48.0938C157.544 47.8984 157.477 47.6328 157.36 47.2969C157.243 46.9531 157.094 46.6523 156.915 46.3945C156.735 46.1289 156.544 45.9961 156.34 45.9961L153.54 46.0078V51.6914C153.54 52.3789 153.887 52.7539 154.583 52.8164L157.946 52.8047C158.672 52.8047 159.282 52.5625 159.774 52.0781C160.266 51.5859 160.692 50.7656 161.051 49.6172C161.09 49.4922 161.192 49.3984 161.356 49.3359C161.528 49.2656 161.692 49.2305 161.848 49.2305C162.004 49.2305 162.141 49.2656 162.258 49.3359C162.383 49.4062 162.454 49.5039 162.469 49.6289L161.93 53.9883L148.864 54C148.747 54 148.649 53.9297 148.571 53.7891C148.501 53.6484 148.465 53.5195 148.465 53.4023ZM165.094 54C164.977 54 164.879 53.9297 164.801 53.7891C164.731 53.6484 164.696 53.5195 164.696 53.4023C164.696 53.2695 164.723 53.168 164.778 53.0977C164.833 53.0273 164.934 52.9844 165.083 52.9688C165.551 52.9297 165.95 52.8555 166.278 52.7461C166.614 52.6289 166.782 52.4531 166.782 52.2188V39.5391C166.782 39.2344 166.692 39.0039 166.512 38.8477C166.333 38.6914 166.133 38.5898 165.915 38.543C165.704 38.4961 165.399 38.4492 165.001 38.4023C164.829 38.3867 164.715 38.3555 164.661 38.3086C164.606 38.2539 164.579 38.1406 164.579 37.9688C164.579 37.8516 164.614 37.7227 164.684 37.582C164.762 37.4414 164.86 37.3711 164.977 37.3711H172.348C174.372 37.3789 176.047 37.7539 177.376 38.4961C178.704 39.2383 179.676 40.2109 180.294 41.4141C180.911 42.6094 181.219 43.9219 181.219 45.3516C181.219 47.2656 180.801 48.875 179.965 50.1797C179.129 51.4766 178.083 52.4375 176.825 53.0625C175.567 53.6875 174.305 54 173.04 54H165.094ZM169.747 52.0312C169.747 52.2422 169.922 52.4258 170.274 52.582C170.633 52.7383 171.27 52.8164 172.184 52.8164C173.317 52.8164 174.278 52.6484 175.067 52.3125C175.864 51.9766 176.512 51.2656 177.012 50.1797C177.52 49.0938 177.774 47.5 177.774 45.3984C177.774 42.7734 177.239 40.9688 176.169 39.9844C175.098 39 173.731 38.5078 172.067 38.5078H169.758L169.747 52.0312Z" fill="#171832"/>
</svg>
