<svg width="40" height="40" viewBox="0 0 40 40" fill="none" xmlns="http://www.w3.org/2000/svg">
<g opacity="0.7">
<path d="M16.0631 7.43359C14.5846 9.24931 12.6138 10.5516 10.3635 11.1998C9.62779 11.4116 9.20322 12.1796 9.41511 12.9151C9.61497 13.6088 10.3095 14.0257 11.0049 13.8933C11.0469 13.8854 11.089 13.8754 11.1308 13.8633C12.2758 13.5335 13.3625 13.0673 14.3729 12.4769L16.0631 7.43359Z" fill="#00CCF2"/>
<path d="M20.0081 15.9571L21.5173 11.6467C21.9726 11.7175 22.43 11.7537 22.8856 11.7537C24.9402 11.7537 26.9583 11.0426 28.5805 9.69539L28.7666 9.54079C29.3446 9.06059 29.4636 8.20222 29.0043 7.60742C28.5221 6.98302 27.6225 6.88756 27.0206 7.38752L26.809 7.56329C26.448 7.86319 26.0584 8.11731 25.6488 8.32393C24.051 9.12981 22.131 8.71257 20.9136 7.40119C20.318 6.75952 19.4664 6.35205 18.5069 6.35205C17.0109 6.35205 15.7038 7.36244 15.3272 8.80999L13.4677 15.9571H20.0081Z" fill="#00CCF2"/>
<path d="M13.4675 15.957L8.00415 30.2805C7.64927 31.2109 8.25409 32.229 9.24098 32.3626L9.27747 32.3675C9.95292 32.4589 10.6036 32.1164 10.9067 31.5155C12.4517 28.4526 17.0129 19.4361 17.0129 19.4361H18.8652L17.9206 25.374C17.7807 26.253 18.46 27.0487 19.3501 27.0487C20.0001 27.0487 20.5704 26.6155 20.7446 25.9895L22.5199 19.6114C23.0311 17.7749 21.6499 15.957 19.7433 15.957H18.8976H13.4675Z" fill="#FFBE52"/>
<path d="M39.2186 17.376L32.4849 18.731L33.9484 20.1942L29.2679 24.8738L25.9476 21.554L10.521 36.9782L12.762 39.2188L25.9476 26.0354L29.2679 29.3552L36.1895 22.4349L37.8634 24.1086L39.2186 17.376Z" fill="#FF6371"/>
<path d="M39.2186 17.376L32.4849 18.731L33.9484 20.1942L29.2679 24.8738L25.9476 21.554L10.521 36.9782L12.762 39.2188L25.9476 26.0354L29.2679 29.3552L36.1895 22.4349L37.8634 24.1086L39.2186 17.376Z" fill="#FF6371"/>
<path d="M20.5342 6.35285C22.0727 6.35285 23.32 5.10561 23.32 3.56705C23.32 2.0285 22.0727 0.78125 20.5342 0.78125C18.9956 0.78125 17.7484 2.0285 17.7484 3.56705C17.7484 5.10561 18.9956 6.35285 20.5342 6.35285Z" fill="#FED2A4"/>
<path d="M6.85319 21.8191L1.07876 16.0456C0.682081 15.649 0.682081 15.006 1.07876 14.6094L5.27031 10.4186C5.66699 10.0219 6.31009 10.0219 6.70677 10.4186L12.4812 16.192C12.8779 16.5886 12.8779 17.2316 12.4812 17.6282L8.28965 21.8191C7.89297 22.2156 7.24987 22.2156 6.85319 21.8191Z" fill="#FF9357"/>
<path d="M5.92485 17.0232L5.68592 16.7843C5.26619 16.3646 5.26619 15.6841 5.68592 15.2645L6.68476 14.2656L8.44351 16.0244L7.44467 17.0232C7.02495 17.4429 6.34449 17.4429 5.92485 17.0232Z" fill="white"/>
<path d="M39.7711 16.8236C39.5862 16.6387 39.3206 16.5587 39.0645 16.6101L32.3308 17.9651C32.0485 18.022 31.8202 18.2295 31.7369 18.505C31.6537 18.7806 31.7287 19.0797 31.9324 19.2834L32.8434 20.1942L29.2679 23.7691L26.5 21.0017C26.3534 20.8552 26.1547 20.7729 25.9475 20.7729C25.7403 20.7729 25.5416 20.8552 25.395 21.0017L21.9986 24.3976L23.2727 19.8206C23.5824 18.708 23.3592 17.5424 22.6605 16.6227C22.2325 16.0595 21.6674 15.6442 21.0286 15.4062L22.0471 12.4974C22.3281 12.5221 22.6085 12.5347 22.8856 12.5347C25.1417 12.5347 27.3415 11.7396 29.0797 10.296L29.2659 10.1414C30.1823 9.38015 30.3389 8.0572 29.6225 7.12977C29.2593 6.65941 28.7344 6.36444 28.1445 6.29929C27.5544 6.23406 26.9778 6.40717 26.5212 6.78644L26.3097 6.96213C25.998 7.22093 25.6572 7.44443 25.2967 7.62622C24.0919 8.23383 22.5874 7.96322 21.5877 6.974C23.0419 6.52364 24.1012 5.1664 24.1012 3.56637C24.1013 1.59988 22.501 0 20.5341 0C18.5672 0 16.967 1.59988 16.967 3.56645C16.967 4.34904 17.221 5.07305 17.65 5.66176C16.8386 5.83643 16.1083 6.25476 15.5495 6.8462C15.5169 6.87479 15.4856 6.90572 15.4573 6.94057C14.08 8.63215 12.2437 9.8455 10.1472 10.4493C9.57954 10.6129 9.13028 10.9897 8.86065 11.4675L7.25925 9.86636C6.55857 9.16586 5.41862 9.16594 4.71785 9.86636L2.62211 11.9618L0.526376 14.0572C0.186892 14.3966 0 14.8477 0 15.3277C0 15.8077 0.18697 16.2588 0.526298 16.5983L6.30065 22.3717C6.64014 22.711 7.09135 22.8979 7.57139 22.8979C8.05151 22.8979 8.50273 22.7109 8.84213 22.3717L11.0121 20.2021L9.98317 22.8997C9.82941 23.3028 10.0316 23.7542 10.4348 23.9079C10.5264 23.9429 10.6205 23.9594 10.7131 23.9594C11.0278 23.9594 11.3245 23.7679 11.4433 23.4564L14.0059 16.7381H18.8977H19.7434C20.4058 16.7381 21.0155 17.0406 21.4162 17.568C21.817 18.0953 21.945 18.7637 21.7673 19.4017L19.9919 25.7798C19.912 26.0668 19.6481 26.2673 19.3501 26.2673C19.0828 26.2673 18.9179 26.1209 18.8434 26.0336C18.769 25.9464 18.6502 25.7605 18.6922 25.4967L19.6369 19.5587C19.6728 19.3328 19.608 19.1027 19.4595 18.9288C19.3111 18.7549 19.0938 18.6548 18.8652 18.6548H17.0129C16.7182 18.6548 16.4486 18.8204 16.3156 19.0833C16.27 19.1735 11.7367 28.1354 10.2091 31.1636C10.0561 31.4668 9.7237 31.6399 9.38281 31.5932L9.34577 31.5882C9.11317 31.5568 8.91112 31.4231 8.79119 31.2213C8.67126 31.0195 8.65055 30.778 8.73423 30.5588L9.21568 29.2967C9.36945 28.8936 9.16724 28.4422 8.76408 28.2884C8.361 28.1347 7.90947 28.3369 7.75563 28.7399L7.27418 30.0021C7.01954 30.6697 7.08283 31.4049 7.44779 32.0192C7.81274 32.6335 8.42819 33.0408 9.13575 33.1365L9.17279 33.1415C9.27991 33.1561 9.38664 33.163 9.49266 33.163C10.3773 33.163 11.2 32.6688 11.6043 31.8672C12.9387 29.2221 16.5676 22.0471 17.4933 20.2171H17.9498L17.149 25.2512C17.0464 25.8962 17.2308 26.5512 17.655 27.0479C17.9278 27.3675 18.2811 27.5988 18.6722 27.7236L9.96856 36.4258C9.82207 36.5724 9.73971 36.771 9.73971 36.9782C9.73971 37.1854 9.82207 37.3841 9.96856 37.5306L12.2096 39.7712C12.3622 39.9237 12.5622 40 12.7621 40C12.962 40 13.162 39.9237 13.3146 39.7712L17.6229 35.4636C17.928 35.1586 17.928 34.6639 17.6229 34.3588C17.3177 34.0538 16.8231 34.0538 16.5178 34.3588L12.7621 38.114L11.6261 36.9781L25.9477 22.6587L28.7156 25.4262C28.8622 25.5727 29.0608 25.655 29.2681 25.655C29.4753 25.655 29.674 25.5727 29.8205 25.4262L34.5009 20.7465C34.806 20.4415 34.806 19.9468 34.5009 19.6417L34.0682 19.2091L38.2208 18.3735L37.3851 22.5255L36.742 21.8825C36.4368 21.5775 35.9423 21.5775 35.637 21.8825L29.268 28.2504L26.5001 25.483C26.1949 25.178 25.7003 25.178 25.395 25.483L20.9375 29.9397C20.6324 30.2448 20.6324 30.7395 20.9375 31.0446C21.2427 31.3496 21.7373 31.3496 22.0426 31.0446L25.9475 27.1403L28.7154 29.9077C29.0206 30.2127 29.5152 30.2127 29.8204 29.9077L36.1895 23.5398L37.311 24.6611C37.5146 24.8647 37.8139 24.9399 38.0894 24.8565C38.3651 24.7733 38.5726 24.5451 38.6295 24.2628L39.9847 17.5301C40.0362 17.2738 39.9561 17.0085 39.7711 16.8236ZM20.5341 1.56238C21.6394 1.56238 22.5385 2.46145 22.5385 3.56645C22.5385 4.67152 21.6393 5.57059 20.5341 5.57059C19.4289 5.57059 18.5297 4.67152 18.5297 3.56645C18.5297 2.46145 19.4289 1.56238 20.5341 1.56238ZM12.8028 15.409L11.8519 14.4583C12.3035 14.3109 12.7471 14.1424 13.1814 13.9539L12.8028 15.409ZM10.1659 12.6992C10.0736 12.3787 10.2593 12.043 10.5798 11.9507C11.8642 11.5807 13.0622 11.0095 14.1415 10.2635L13.7003 11.9595C12.8219 12.4448 11.8868 12.8329 10.9144 13.1129C10.8963 13.1181 10.8774 13.1226 10.8587 13.1262C10.7146 13.1536 10.5703 13.1249 10.4492 13.0559L10.2204 12.8271C10.1978 12.7872 10.1791 12.7447 10.1659 12.6992ZM5.82272 10.9711C5.86842 10.9254 5.92851 10.9026 5.98851 10.9026C6.04852 10.9026 6.1086 10.9254 6.15423 10.9711L9.0023 13.8187C9.13443 13.9991 9.29194 14.1563 9.46938 14.2857L11.9287 16.7446C12.0201 16.8359 12.0201 16.9846 11.9287 17.076L10.3854 18.619L8.66907 16.9029L8.99597 16.5761C9.30108 16.271 9.30108 15.7764 8.99597 15.4712L7.23722 13.7128C6.93204 13.4078 6.43746 13.4078 6.1322 13.7128L5.80529 14.0396L4.27945 12.514L5.82272 10.9711ZM6.89219 16.47C6.81742 16.5448 6.73014 16.556 6.68475 16.556C6.63943 16.556 6.55216 16.5448 6.47739 16.4701V16.47L6.23838 16.2311C6.16369 16.1563 6.15243 16.0691 6.15243 16.0238C6.15243 15.9784 6.16369 15.8911 6.23846 15.8164L6.68475 15.3702L7.33848 16.0238L6.89219 16.47ZM7.73711 21.2669C7.68031 21.3236 7.61569 21.3355 7.57139 21.3355C7.52717 21.3355 7.4624 21.3236 7.40567 21.2668L1.63132 15.4934C1.57452 15.4366 1.56264 15.372 1.56264 15.3277C1.56264 15.2834 1.57452 15.2188 1.63132 15.162L3.17451 13.619L4.7734 15.2176C4.65347 15.4659 4.58979 15.7399 4.58979 16.0238C4.58979 16.5195 4.78294 16.9855 5.13344 17.3359L5.37236 17.5748V17.5748C5.72286 17.9253 6.189 18.1184 6.68475 18.1184C6.96868 18.1184 7.24277 18.0548 7.49107 17.9348L9.28045 19.7239L7.73711 21.2669ZM18.8977 15.1757H14.4782L16.0833 9.00642C16.3703 7.90338 17.3669 7.13305 18.5068 7.13305C19.211 7.13305 19.8624 7.41693 20.341 7.93244C21.8089 9.51388 24.1364 9.96159 26.0006 9.02127C26.4661 8.78652 26.9061 8.49818 27.3083 8.16399L27.5198 7.9883C27.6474 7.88237 27.8082 7.83378 27.9731 7.85237C28.1376 7.87049 28.2841 7.95299 28.3859 8.08477C28.5822 8.3389 28.529 8.72246 28.2674 8.93971L28.0813 9.09431C26.623 10.3055 24.7779 10.9724 22.8857 10.9724C22.4748 10.9724 22.0548 10.9396 21.6374 10.8746C21.2647 10.8162 20.9043 11.0328 20.7798 11.3884L19.4537 15.1757H18.8977Z" fill="black"/>
<path d="M19.295 31.9351C19.0895 31.9351 18.8879 32.0186 18.7426 32.164C18.5973 32.3092 18.5137 32.5108 18.5137 32.7164C18.5137 32.9226 18.5972 33.1234 18.7426 33.2687C18.8879 33.4148 19.0895 33.4977 19.295 33.4977C19.5005 33.4977 19.7021 33.4148 19.8473 33.2687C19.9926 33.1234 20.0763 32.9226 20.0763 32.7164C20.0763 32.5108 19.9927 32.3092 19.8473 32.164C19.7021 32.0186 19.5005 31.9351 19.295 31.9351Z" fill="black"/>
<path d="M9.59797 26.8839C9.80346 26.8839 10.005 26.8003 10.1504 26.6549C10.2956 26.5097 10.3793 26.3081 10.3793 26.1026C10.3793 25.8971 10.2957 25.6955 10.1504 25.5502C10.0043 25.4049 9.80346 25.3213 9.59797 25.3213C9.39248 25.3213 9.1909 25.4048 9.0448 25.5502C8.89955 25.6955 8.81665 25.8971 8.81665 26.1026C8.81665 26.3081 8.89955 26.5097 9.0448 26.6549C9.1909 26.8003 9.3917 26.8839 9.59797 26.8839Z" fill="black"/>
</g>
</svg>
