<svg width="40" height="40" viewBox="0 0 40 40" fill="none" xmlns="http://www.w3.org/2000/svg">
<g opacity="0.7">
<path d="M36.6522 8.09668H0.00288313C0.00288313 8.09668 0.0342112 29.9262 0.00288313 31.1341C0.00264876 31.1445 0.00264876 31.1549 0.00296125 31.1652C0.0344456 32.3275 0.510617 33.4151 1.34366 34.2277C2.17866 35.0421 3.28085 35.4907 4.44748 35.4907H23.8054C23.9611 35.4907 24.1105 35.4288 24.2206 35.3188L37.0674 22.472C37.1775 22.3618 37.2393 22.2126 37.2393 22.0568V8.68371C37.2393 8.35941 36.9764 8.09668 36.6522 8.09668Z" fill="#E0E0E2"/>
<path d="M10.6219 23.4478H13.0209L14.9446 17.4112L24.2592 8.09668H22.0674L12.7528 17.4112L10.6219 23.4478Z" fill="#C6C5CA"/>
<path d="M36.6522 8.09668H34.6953V24.8441L37.0674 22.472C37.1775 22.3618 37.2393 22.2126 37.2393 22.0568V8.68371C37.2393 8.35941 36.9764 8.09668 36.6522 8.09668Z" fill="#C6C5CA"/>
<path d="M26.7504 23.9286H10.4915C10.1673 23.9286 9.90442 23.6658 9.90442 23.3415C9.90442 23.0172 10.1673 22.7544 10.4915 22.7544H26.7504C27.0747 22.7544 27.3375 23.0172 27.3375 23.3415C27.3375 23.6658 27.0746 23.9286 26.7504 23.9286Z" fill="#3C5156"/>
<path d="M4.46155 26.4801C4.71476 26.4801 4.9628 26.5021 5.20468 26.5422V2.28828C5.20468 1.96398 4.94179 1.70117 4.61757 1.70117C2.07148 1.70117 0 3.77257 0 6.31874V30.365C0.302421 28.1706 2.18406 26.4801 4.46155 26.4801Z" fill="#919191"/>
<path d="M31.8712 7.53618L28.3453 4.01025C28.2352 3.90018 28.0859 3.83838 27.9302 3.83838C27.7745 3.83838 27.6252 3.90025 27.515 4.01025L14.5294 16.9958C14.5216 17.0036 14.5147 17.0119 14.5073 17.0202L18.9268 21.3106L31.8711 8.3665C32.1005 8.13712 32.1005 7.76548 31.8712 7.53618Z" fill="#FFD039"/>
<path d="M17.314 19.7449L18.9269 21.3107L31.8711 8.36656C32.1004 8.13718 32.1004 7.76554 31.8711 7.53625L30.6962 6.36133L17.314 19.7449Z" fill="#FFA304"/>
<path d="M14.5089 17.022C14.4569 17.0791 14.4155 17.1463 14.3889 17.2214L12.4672 22.6654C12.392 22.8786 12.4458 23.116 12.6057 23.2759C12.7177 23.388 12.8678 23.4478 13.0208 23.4478C13.0864 23.4478 13.1523 23.4369 13.2162 23.4143L18.6601 21.4926C18.7649 21.4556 18.8543 21.3897 18.9217 21.3058L14.5089 17.022Z" fill="#FFC89F"/>
<path d="M13.0209 23.4478C13.0865 23.4478 13.1524 23.4368 13.2163 23.4143L18.6602 21.4925C18.765 21.4556 18.8543 21.3896 18.9218 21.3057L17.3122 19.7432L12.9474 21.3053L12.4673 22.6652C12.3921 22.8784 12.4459 23.1158 12.6058 23.2757C12.7178 23.3878 12.8678 23.4478 13.0209 23.4478Z" fill="#F7B081"/>
<path d="M13.0209 23.4479C13.0864 23.4479 13.1524 23.4369 13.2163 23.4144L16.6494 22.2025L13.6736 19.248L12.4674 22.6653C12.3922 22.8785 12.446 23.1159 12.6058 23.2759C12.7178 23.388 12.8678 23.4479 13.0209 23.4479Z" fill="#3C5156"/>
<path d="M15.0044 20.5693L12.9474 21.3055L12.4673 22.6654C12.3921 22.8786 12.4459 23.1161 12.6058 23.276C12.7178 23.388 12.8679 23.4478 13.0209 23.4478C13.0865 23.4478 13.1524 23.4369 13.2163 23.4143L16.6494 22.2025L15.0044 20.5693Z" fill="#304144"/>
<path d="M33.7788 5.62843L30.2528 2.10258C30.0235 1.87336 29.6518 1.87336 29.4225 2.10258L27.1014 4.42367L31.4559 8.78171L33.7788 6.45882C33.8888 6.34866 33.9506 6.19944 33.9506 6.04366C33.9506 5.88796 33.8888 5.73866 33.7788 5.62843Z" fill="#FF6137"/>
<path d="M29.8663 7.19103L30.418 7.74306L31.4563 8.78134L33.7788 6.45884C33.8888 6.34869 33.9506 6.19947 33.9506 6.04369C33.9506 5.88799 33.8888 5.73869 33.7788 5.62853L32.6038 4.45361L29.8663 7.19103Z" fill="#E04F32"/>
<path d="M35.3573 2.34875L33.5327 0.524218C33.1946 0.186172 32.7449 0 32.2668 0C31.7887 0 31.3391 0.186172 31.001 0.524218L29.8385 1.68672L29.4224 2.10281L28.9993 2.52585L33.3636 6.87405L33.9869 6.25069L35.3572 4.88038C35.6953 4.54234 35.8814 4.09265 35.8814 3.61452C35.8814 3.1364 35.6953 2.68687 35.3573 2.34875Z" fill="#546F7A"/>
<path d="M29.0066 2.51855L28.9994 2.52574L30.3015 3.82293L29.0066 2.51855Z" fill="#475D63"/>
<path d="M35.3573 2.34853L33.9174 0.908691C34.1529 1.22166 34.2821 1.6008 34.2821 2.0008C34.2821 2.48424 34.096 2.93877 33.7579 3.28072L32.3876 4.66626L31.7724 5.28845L33.3639 6.87399L33.9871 6.25063L35.3574 4.88032C35.6955 4.54228 35.8817 4.09259 35.8817 3.61447C35.8817 3.13634 35.6953 2.68666 35.3573 2.34853Z" fill="#475D63"/>
<path d="M39.6375 18.7537C39.4181 18.6628 39.1656 18.713 38.9976 18.8809L19.0091 38.8695C18.8412 39.0374 18.791 39.2899 18.8818 39.5093C18.9727 39.7287 19.1868 39.8717 19.4242 39.8717H39.4129C39.7371 39.8717 40 39.6089 40 39.2846V19.2962C39.9999 19.0587 39.8568 18.8445 39.6375 18.7537ZM28.7524 35.1227L35.1685 28.7066V35.1227H28.7524Z" fill="#FFCA10"/>
<path d="M39.6375 18.7537C39.4181 18.6628 39.1656 18.713 38.9977 18.8809L37.4558 20.4228V39.8718H39.4127C39.7369 39.8718 39.9998 39.609 39.9998 39.2847V19.2962C39.9999 19.0587 39.8568 18.8445 39.6375 18.7537Z" fill="#FFA304"/>
<path d="M39.9999 25.8931H37.7426C37.4183 25.8931 37.1555 26.1559 37.1555 26.4802C37.1555 26.8045 37.4183 27.0673 37.7426 27.0673H39.9999V25.8931Z" fill="#C96E14"/>
<path d="M39.9999 28.8364H37.7425C37.4182 28.8364 37.1554 29.0992 37.1554 29.4235C37.1554 29.7478 37.4182 30.0106 37.7425 30.0106H39.9999V28.8364Z" fill="#C96E14"/>
<path d="M39.9999 31.7798H37.7425C37.4182 31.7798 37.1554 32.0426 37.1554 32.3669C37.1554 32.6912 37.4182 32.954 37.7425 32.954H39.9999V31.7798Z" fill="#C96E14"/>
<path d="M39.9999 34.7231H37.7425C37.4182 34.7231 37.1554 34.986 37.1554 35.3103C37.1554 35.6345 37.4182 35.8974 37.7425 35.8974H39.9999V34.7231Z" fill="#C96E14"/>
</g>
</svg>
