<svg width="40" height="40" viewBox="0 0 40 40" fill="none" xmlns="http://www.w3.org/2000/svg">
<path d="M22.3438 40H17.6562C17.0383 40 16.5255 39.5194 16.4866 38.9014L16.3837 37.1822C14.2642 36.7359 12.2272 35.8913 10.4098 34.7034L9.17391 35.794C8.71156 36.2025 8.01117 36.183 7.56945 35.7436L4.25523 32.4294C3.81805 31.9922 3.79516 31.2895 4.20484 30.8249L5.29664 29.589C4.10875 27.7728 3.26414 25.7369 2.81555 23.6163L1.09859 23.5134C0.480625 23.4745 0 22.9629 0 22.3438V17.6562C0 17.0371 0.480625 16.5255 1.09859 16.4866L2.81555 16.3837C3.26414 14.263 4.10875 12.2272 5.29664 10.411L4.20484 9.17508C3.79516 8.71047 3.81805 8.00781 4.25523 7.57062L7.56945 4.25641C8.00891 3.81812 8.71156 3.79867 9.17391 4.20602L10.4098 5.29664C12.2272 4.10875 14.2642 3.26414 16.3837 2.81781L16.4866 1.09859C16.5255 0.480625 17.0383 0 17.6562 0H22.3438C22.9617 0 23.4745 0.480625 23.5134 1.09859L23.6163 2.81781C25.7358 3.26414 27.7728 4.10867 29.5902 5.29664L30.8261 4.20602C31.2907 3.79977 31.9911 3.81922 32.4305 4.25641L35.7448 7.57062C36.182 8.00781 36.2048 8.71047 35.7952 9.17508L34.7034 10.411C35.8913 12.2272 36.7359 14.2631 37.1845 16.3837L38.9014 16.4866C39.5194 16.5255 40 17.0371 40 17.6562V22.3438C40 22.9629 39.5194 23.4745 38.9014 23.5134L37.1845 23.6163C36.7359 25.737 35.8913 27.7728 34.7034 29.589L35.7952 30.8249C36.2048 31.2895 36.182 31.9922 35.7448 32.4294L32.4305 35.7436C31.9911 36.1819 31.2884 36.2013 30.8261 35.794L29.5902 34.7034C27.7728 35.8913 25.7358 36.7359 23.6163 37.1822L23.5134 38.9014C23.4745 39.5194 22.9617 40 22.3438 40Z" fill="#4D4D99"/>
<path d="M38.9014 16.4866L37.1845 16.3837C36.7359 14.263 35.8913 12.2272 34.7034 10.411L35.7952 9.17508C36.2048 8.71047 36.182 8.00781 35.7448 7.57062L32.4305 4.25641C31.9911 3.81922 31.2907 3.79977 30.8261 4.20602L29.5902 5.29664C27.7728 4.10875 25.7358 3.26414 23.6163 2.81781L23.5134 1.09859C23.4745 0.480625 22.9617 0 22.3438 0H20V40H22.3438C22.9617 40 23.4745 39.5194 23.5134 38.9014L23.6163 37.1822C25.7358 36.7359 27.7728 35.8913 29.5902 34.7034L30.8261 35.794C31.2884 36.2014 31.9911 36.182 32.4305 35.7436L35.7448 32.4294C36.182 31.9922 36.2048 31.2895 35.7952 30.8249L34.7034 29.589C35.8913 27.7728 36.7359 25.7369 37.1845 23.6163L38.9014 23.5134C39.5194 23.4745 40 22.9629 40 22.3438V17.6562C40 17.0371 39.5194 16.5255 38.9014 16.4866Z" fill="#292966"/>
<path d="M16.4844 27.0312C16.4844 26.3835 15.9602 25.8594 15.3125 25.8594C14.667 25.8594 14.1406 25.3341 14.1406 24.6875V22.3438C14.1406 21.4401 13.7884 20.6234 13.2263 20C13.7884 19.3766 14.1406 18.5599 14.1406 17.6562V15.3125C14.1406 14.6659 14.667 14.1406 15.3125 14.1406C15.9602 14.1406 16.4844 13.6165 16.4844 12.9688C16.4844 12.321 15.9602 11.7969 15.3125 11.7969C13.3739 11.7969 11.7969 13.3739 11.7969 15.3125V17.6562C11.7969 18.3028 11.2705 18.8281 10.625 18.8281C9.97727 18.8281 9.45312 19.3523 9.45312 20C9.45312 20.6477 9.97727 21.1719 10.625 21.1719C11.2705 21.1719 11.7969 21.6972 11.7969 22.3438V24.6875C11.7969 26.6261 13.3739 28.2031 15.3125 28.2031C15.9602 28.2031 16.4844 27.679 16.4844 27.0312Z" fill="#99FFFF"/>
<path d="M30.5469 20C30.5469 19.3523 30.0227 18.8281 29.375 18.8281C28.7295 18.8281 28.2031 18.3028 28.2031 17.6562V15.3125C28.2031 13.3739 26.6261 11.7969 24.6875 11.7969C24.0398 11.7969 23.5156 12.321 23.5156 12.9688C23.5156 13.6165 24.0398 14.1406 24.6875 14.1406C25.333 14.1406 25.8594 14.6659 25.8594 15.3125V17.6562C25.8594 18.5599 26.2116 19.3766 26.7738 20C26.2116 20.6234 25.8594 21.4401 25.8594 22.3438V24.6875C25.8594 25.3341 25.333 25.8594 24.6875 25.8594C24.0398 25.8594 23.5156 26.3835 23.5156 27.0312C23.5156 27.679 24.0398 28.2031 24.6875 28.2031C26.6261 28.2031 28.2031 26.6261 28.2031 24.6875V22.3438C28.2031 21.6972 28.7295 21.1719 29.375 21.1719C30.0227 21.1719 30.5469 20.6477 30.5469 20Z" fill="#66E6FF"/>
<path d="M17.6562 21.1719C18.3035 21.1719 18.8281 20.6472 18.8281 20C18.8281 19.3528 18.3035 18.8281 17.6562 18.8281C17.009 18.8281 16.4844 19.3528 16.4844 20C16.4844 20.6472 17.009 21.1719 17.6562 21.1719Z" fill="#99FFFF"/>
<path d="M22.3438 21.1719C22.991 21.1719 23.5156 20.6472 23.5156 20C23.5156 19.3528 22.991 18.8281 22.3438 18.8281C21.6965 18.8281 21.1719 19.3528 21.1719 20C21.1719 20.6472 21.6965 21.1719 22.3438 21.1719Z" fill="#66E6FF"/>
</svg>
